<?xml version="1.0" encoding="iso-8859-1"?>
<!-- Generator: Adobe Illustrator 19.0.0, SVG Export Plug-In . SVG Version: 6.00 Build 0)  -->
<svg version="1.1" id="Capa_1" xmlns="http://www.w3.org/2000/svg" xmlns:xlink="http://www.w3.org/1999/xlink" x="0px" y="0px"
	 viewBox="0 0 511.998 511.998" style="enable-background:new 0 0 511.998 511.998;" xml:space="preserve">
<g>
	<g>
		<path d="M497.22,476.138c-6.53-4.49-15.475-10.639-31.771-10.639c-16.296,0-25.241,6.149-31.772,10.639
			c-5.029,3.457-7.799,5.361-14.778,5.361c-6.978,0-9.747-1.904-14.774-5.361c-6.531-4.49-15.476-10.639-31.771-10.639
			s-25.239,6.149-31.771,10.639c-5.027,3.457-7.798,5.361-14.775,5.361s-9.746-1.904-14.773-5.36
			c-6.531-4.49-15.476-10.64-31.771-10.64s-25.239,6.149-31.77,10.64c-5.027,3.457-7.797,5.36-14.773,5.36
			c-6.978,0-9.747-1.904-14.774-5.361c-6.531-4.49-15.476-10.639-31.771-10.639s-25.239,6.149-31.771,10.64
			c-5.027,3.457-7.797,5.36-14.773,5.36c-6.978,0-9.747-1.904-14.774-5.36c-6.531-4.49-15.476-10.64-31.771-10.64
			s-25.238,6.149-31.77,10.639c-5.027,3.457-7.797,5.361-14.774,5.361s-9.746-1.904-14.773-5.36
			c-6.532-4.491-15.476-10.64-31.77-10.64v30c6.976,0,9.745,1.904,14.772,5.36c6.53,4.49,15.475,10.64,31.77,10.64
			s25.239-6.149,31.771-10.64c5.027-3.457,7.797-5.36,14.773-5.36c6.979,0,9.748,1.904,14.775,5.361
			c6.531,4.49,15.476,10.639,31.771,10.639s25.238-6.149,31.77-10.639c5.027-3.457,7.797-5.361,14.774-5.361
			s9.747,1.904,14.774,5.361c6.531,4.49,15.476,10.639,31.771,10.639s25.239-6.149,31.77-10.64c5.027-3.457,7.797-5.36,14.773-5.36
			c6.978,0,9.747,1.904,14.774,5.361c6.53,4.49,15.475,10.639,31.77,10.639c16.296,0,25.24-6.149,31.771-10.64
			c5.027-3.457,7.797-5.36,14.774-5.36s9.747,1.904,14.774,5.361c6.531,4.49,15.476,10.639,31.771,10.639
			c16.296,0,25.241-6.149,31.772-10.639c5.029-3.457,7.799-5.361,14.778-5.361c6.979,0,9.749,1.904,14.778,5.361
			c6.531,4.49,15.477,10.639,31.772,10.639v-30C505.019,481.499,502.249,479.595,497.22,476.138z"/>
	</g>
</g>
<g>
	<g>
		<path d="M497.222,416.134c-6.531-4.49-15.477-10.639-31.772-10.639c-16.295,0-25.241,6.149-31.772,10.639
			c-5.029,3.457-7.799,5.361-14.778,5.361c-6.408,0-9.271-1.61-13.589-4.55l79.318-132.224L420,256.135V124.251H312V0.499H200
			v123.752H92v131.884l-64.627,28.586l72.702,121.196c-2.174-0.262-4.485-0.421-6.989-0.421c-16.295,0-25.238,6.149-31.77,10.639
			c-5.027,3.457-7.797,5.361-14.774,5.361s-9.746-1.904-14.773-5.36c-6.53-4.49-15.475-10.64-31.769-10.64v30
			c6.976,0,9.745,1.904,14.772,5.36c6.53,4.49,15.475,10.64,31.77,10.64c16.295,0,25.239-6.149,31.771-10.64
			c5.027-3.457,7.797-5.36,14.773-5.36c6.979,0,9.748,1.904,14.775,5.361c6.531,4.49,15.476,10.639,31.771,10.639
			c16.295,0,25.238-6.149,31.77-10.639c5.027-3.457,7.797-5.361,14.774-5.361s9.747,1.904,14.774,5.361
			c6.531,4.49,15.476,10.639,31.771,10.639c16.295,0,25.239-6.149,31.77-10.64c5.027-3.457,7.797-5.36,14.773-5.36
			c6.978,0,9.747,1.904,14.774,5.361c6.53,4.49,15.475,10.639,31.77,10.639c16.296,0,25.24-6.149,31.771-10.64
			c5.027-3.457,7.797-5.36,14.774-5.36s9.747,1.904,14.774,5.361c6.531,4.49,15.476,10.639,31.771,10.639
			c16.296,0,25.241-6.149,31.772-10.639c5.029-3.457,7.799-5.361,14.778-5.361s9.749,1.904,14.778,5.361
			c6.531,4.49,15.477,10.639,31.772,10.639v-30C505.021,421.495,502.251,419.591,497.222,416.134z M230,30.499h52v25.718h-52V30.499
			z M230,86.218h52v38.034h-52V86.218z M241,420.039c-2.236,0.953-4.704,1.456-8.279,1.456c-6.978,0-9.747-1.904-14.775-5.361
			c-6.531-4.49-15.476-10.639-31.771-10.639c-16.295,0-25.239,6.149-31.771,10.64c-3.766,2.589-6.265,4.307-10.214,5.006
			L70.572,298.416L241,223.033V420.039z M256,183.594l-134,59.271v-29.367h33v-30h-33v-29.247h268v29.247h-33v30h33v29.367
			L256,183.594z M377.076,405.691c-1.508-0.119-3.068-0.197-4.722-0.197c-16.295,0.001-25.24,6.15-31.771,10.64
			c-5.027,3.457-7.798,5.361-14.775,5.361s-9.746-1.904-14.773-5.36c-6.531-4.49-15.476-10.64-31.771-10.64
			c-2.994,0-5.735,0.211-8.264,0.578v-183.04l170.428,75.383L377.076,405.691z"/>
	</g>
</g>
<g>
	<g>
		<path d="M144.073,339.013c-7.846,0-15.363,6.899-15,15c0.364,8.127,6.591,15,15,15c7.846,0,15.363-6.899,15-15
			C158.709,345.886,152.482,339.013,144.073,339.013z"/>
	</g>
</g>
<g>
	<g>
		<path d="M365.798,339.013c-7.846,0-15.363,6.899-15,15c0.364,8.127,6.591,15,15,15c7.847,0,15.363-6.899,15-15
			C380.434,345.886,374.207,339.013,365.798,339.013z"/>
	</g>
</g>
<g>
</g>
<g>
</g>
<g>
</g>
<g>
</g>
<g>
</g>
<g>
</g>
<g>
</g>
<g>
</g>
<g>
</g>
<g>
</g>
<g>
</g>
<g>
</g>
<g>
</g>
<g>
</g>
<g>
</g>
</svg>
