<?xml version="1.0" encoding="iso-8859-1"?>
<!-- Generator: Adobe Illustrator 19.0.0, SVG Export Plug-In . SVG Version: 6.00 Build 0)  -->
<svg version="1.1" id="Layer_1" xmlns="http://www.w3.org/2000/svg" xmlns:xlink="http://www.w3.org/1999/xlink" x="0px" y="0px"
	 viewBox="0 0 512 512" style="enable-background:new 0 0 512 512;" xml:space="preserve">
<g>
	<g>
		<path d="M255.999,0C114.841,0,0.001,114.841,0.001,256s114.841,256,255.999,256s256-114.841,256-256S397.159,0,255.999,0z
			 M255.999,492.509C125.589,492.509,19.492,386.41,19.492,256S125.589,19.491,255.999,19.491
			c130.412,0,236.509,106.097,236.509,236.509S386.411,492.509,255.999,492.509z"/>
	</g>
</g>
<g>
	<g>
		<path d="M255.999,162.563c-51.521,0-93.435,41.916-93.435,93.437c0,51.52,41.914,93.435,93.435,93.435
			c51.521,0,93.437-41.916,93.437-93.435C349.436,204.478,307.52,162.563,255.999,162.563z M255.999,329.944
			c-40.773,0-73.944-33.17-73.944-73.944c0-40.773,33.17-73.945,73.944-73.945s73.945,33.172,73.945,73.945
			C329.945,296.773,296.774,329.944,255.999,329.944z"/>
	</g>
</g>
<g>
	<g>
		<path d="M453.247,256c0-7.509,2.234-15.752,4.599-24.479c3.751-13.844,7.63-28.159,3.102-42.109
			c-4.723-14.543-17.078-24.408-27.979-33.111c-6.821-5.446-13.262-10.589-17.378-16.245c-4.201-5.772-7.153-13.57-10.279-21.826
			c-5.147-13.596-10.469-27.654-22.661-36.527c-12.07-8.785-27.022-9.525-41.48-10.242c-8.885-0.44-17.277-0.856-24.199-3.104
			c-6.47-2.1-13.241-6.571-20.413-11.302c-11.712-7.73-24.985-16.491-40.556-16.491s-28.846,8.761-40.558,16.491
			c-7.17,4.733-13.942,9.203-20.411,11.302c-6.921,2.247-15.314,2.664-24.199,3.104c-14.459,0.717-29.41,1.457-41.48,10.242
			c-12.193,8.872-17.515,22.931-22.661,36.526c-3.125,8.257-6.077,16.053-10.278,21.828c-4.117,5.656-10.558,10.799-17.38,16.245
			c-10.901,8.702-23.255,18.568-27.978,33.111c-4.53,13.949-0.65,28.265,3.1,42.109c2.365,8.727,4.599,16.97,4.599,24.479
			c0,7.508-2.234,15.75-4.599,24.477c-3.751,13.844-7.63,28.16-3.1,42.109c4.722,14.544,17.078,24.41,27.979,33.113
			c6.821,5.445,13.262,10.588,17.379,16.243c4.201,5.773,7.153,13.571,10.278,21.828c5.147,13.596,10.469,27.653,22.661,36.527
			c12.072,8.785,27.022,9.525,41.48,10.241c8.885,0.44,17.277,0.856,24.199,3.104c6.47,2.1,13.241,6.571,20.411,11.302
			c11.712,7.73,24.987,16.492,40.558,16.492s28.846-8.762,40.556-16.492c7.17-4.732,13.942-9.203,20.413-11.302
			c6.921-2.247,15.314-2.664,24.199-3.104c14.457-0.716,29.409-1.455,41.48-10.241c12.193-8.874,17.515-22.932,22.661-36.527
			c3.125-8.257,6.077-16.054,10.279-21.828c4.115-5.655,10.558-10.798,17.377-16.243c10.902-8.704,23.257-18.569,27.979-33.112
			c4.529-13.951,0.65-28.266-3.102-42.111C455.48,271.752,453.247,263.508,453.247,256z M442.406,316.57
			c-2.915,8.98-11.992,16.226-21.6,23.899c-7.53,6.011-15.315,12.226-20.978,20.006c-5.742,7.891-9.303,17.299-12.747,26.395
			c-4.324,11.425-8.411,22.216-15.901,27.667c-7.372,5.365-18.838,5.932-30.976,6.534c-9.768,0.483-19.867,0.984-29.255,4.032
			c-8.983,2.917-17.191,8.336-25.13,13.575c-10.337,6.823-20.102,13.268-29.821,13.268c-9.718,0-19.484-6.445-29.82-13.268
			c-7.938-5.239-16.147-10.658-25.13-13.575c-9.387-3.048-19.487-3.547-29.255-4.032c-12.138-0.602-23.603-1.168-30.974-6.534
			c-7.491-5.451-11.577-16.243-15.901-27.667c-3.443-9.097-7.005-18.504-12.749-26.395c-5.662-7.778-13.446-13.996-20.975-20.006
			c-9.609-7.672-18.686-14.919-21.603-23.902c-2.738-8.431,0.231-19.39,3.376-30.993c2.594-9.573,5.277-19.472,5.277-29.575
			c0-10.103-2.682-20.003-5.277-29.576c-3.143-11.603-6.114-22.561-3.376-30.993c2.916-8.982,11.992-16.227,21.602-23.9
			c7.529-6.011,15.315-12.228,20.977-20.007c5.743-7.891,9.304-17.299,12.749-26.395c4.326-11.425,8.41-22.215,15.901-27.666
			c7.372-5.365,18.838-5.933,30.976-6.535c9.768-0.483,19.867-0.984,29.254-4.032c8.983-2.917,17.19-8.336,25.128-13.575
			c10.337-6.822,20.101-13.267,29.821-13.267s19.484,6.445,29.821,13.267c7.938,5.241,16.148,10.658,25.131,13.575
			c9.387,3.048,19.486,3.547,29.254,4.032c12.139,0.602,23.604,1.169,30.976,6.535c7.492,5.451,11.577,16.243,15.901,27.667
			c3.443,9.096,7.005,18.503,12.749,26.395c5.662,7.78,13.448,13.996,20.978,20.007c9.609,7.672,18.684,14.919,21.6,23.899
			c2.738,8.433-0.231,19.391-3.376,30.994c-2.594,9.573-5.277,19.472-5.277,29.576c0.003,10.1,2.685,19.999,5.278,29.574
			C442.175,297.178,445.144,308.136,442.406,316.57z"/>
	</g>
</g>
<g>
	<g>
		<path d="M262.04,124.338l-27.285-17.541c-4.529-2.911-10.558-1.601-13.469,2.928c-2.911,4.527-1.6,10.557,2.928,13.467
			l27.287,17.541c1.631,1.049,3.456,1.549,5.261,1.549c3.206,0,6.345-1.58,8.206-4.477
			C267.879,133.278,266.568,127.248,262.04,124.338z"/>
	</g>
</g>
<g>
	<g>
		<path d="M312.482,366.939c-2.656-4.679-8.605-6.319-13.287-3.662l-28.205,16.018c-4.682,2.657-6.32,8.606-3.662,13.288
			c1.794,3.16,5.091,4.934,8.483,4.934c1.631,0,3.284-0.409,4.804-1.272l28.205-16.018
			C313.502,377.569,315.14,371.62,312.482,366.939z"/>
	</g>
</g>
<g>
	<g>
		<path d="M175.826,381.944l-2.822-32.317c-0.469-5.361-5.196-9.323-10.557-8.861c-5.361,0.468-9.33,5.195-8.861,10.557
			l2.822,32.315c0.443,5.073,4.699,8.898,9.698,8.898c0.285,0,0.57-0.012,0.859-0.036
			C172.327,392.033,176.295,387.306,175.826,381.944z"/>
	</g>
</g>
<g>
	<g>
		<path d="M122.364,187.598c-0.01,0-0.019,0-0.029,0c-5.369,0-9.729,4.345-9.746,9.718l-0.095,32.439
			c-0.016,5.382,4.335,9.759,9.717,9.773c0.01,0,0.019,0,0.029,0c5.369,0,9.729-4.345,9.746-9.718l0.095-32.439
			C132.096,191.99,127.746,187.614,122.364,187.598z"/>
	</g>
</g>
<g>
	<g>
		<path d="M393.211,178.632l-32.017-5.219c-5.312-0.867-10.32,2.739-11.185,8.051c-0.865,5.312,2.738,10.32,8.051,11.185
			l32.017,5.219c0.53,0.086,1.058,0.129,1.579,0.129c4.692,0,8.828-3.398,9.608-8.18
			C402.128,184.506,398.523,179.498,393.211,178.632z"/>
	</g>
</g>
<g>
	<g>
		<path d="M381.632,273.56c-0.01,0-0.019,0-0.027,0c-5.369,0-9.73,4.345-9.746,9.718l-0.094,32.439
			c-0.016,5.382,4.335,9.759,9.718,9.773c0.01,0,0.019,0,0.027,0c5.369,0,9.73-4.345,9.746-9.718l0.094-32.439
			C391.366,277.953,387.015,273.576,381.632,273.56z"/>
	</g>
</g>
<g>
</g>
<g>
</g>
<g>
</g>
<g>
</g>
<g>
</g>
<g>
</g>
<g>
</g>
<g>
</g>
<g>
</g>
<g>
</g>
<g>
</g>
<g>
</g>
<g>
</g>
<g>
</g>
<g>
</g>
</svg>
