<?xml version="1.0" encoding="iso-8859-1"?>
<!-- Generator: Adobe Illustrator 16.0.0, SVG Export Plug-In . SVG Version: 6.00 Build 0)  -->
<!DOCTYPE svg PUBLIC "-//W3C//DTD SVG 1.1//EN" "http://www.w3.org/Graphics/SVG/1.1/DTD/svg11.dtd">
<svg version="1.1" id="Capa_1" xmlns="http://www.w3.org/2000/svg" xmlns:xlink="http://www.w3.org/1999/xlink" x="0px" y="0px"
	 width="191.675px" height="191.675px" viewBox="0 0 191.675 191.675" style="enable-background:new 0 0 191.675 191.675;"
	 xml:space="preserve">
<g>
	<path d="M191.396,98.372c-1.382-7.715-8.775-12.856-16.517-11.491c-0.738,0.132-1.229,0.833-1.092,1.566
		c0.127,0.736,0.844,1.2,1.566,1.092c6.249-1.129,12.266,3.056,13.39,9.315c0.706,3.942-0.222,8.065-2.548,11.33
		c-1.424,1.988-3.301,3.485-5.415,4.503c4.804-3.938,5.584-11.031,1.703-15.909c-3.228-4.05-9.145-4.726-13.189-1.495
		c-1.624,1.294-2.652,3.15-2.884,5.207c-0.232,2.062,0.353,4.098,1.65,5.722c1.081,1.36,2.615,2.221,4.351,2.415
		c1.729,0.195,3.422-0.289,4.777-1.376c0.322-0.253,0.459-0.611,0.475-0.997c0.232-0.416,0.406-0.869,0.406-1.387
		c0-1.587-1.281-2.885-2.885-2.885c-1.587,0-2.874,1.293-2.874,2.885c0,0.359,0.085,0.691,0.206,1.013
		c-0.923-0.153-1.751-0.601-2.336-1.35c-0.85-1.055-1.234-2.379-1.076-3.729c0.163-1.351,0.817-2.558,1.888-3.401
		c2.885-2.302,7.093-1.814,9.402,1.055c2.985,3.76,2.357,9.239-1.397,12.234c-4.814,3.834-10.457,3.153-15.878-1.93
		c-0.232-0.211-0.532-0.28-0.817-0.307c-2.605-2.525-5.284-5.811-8.422-9.756c-1.408-1.767-2.763-3.675-4.124-5.574
		c0.475,0.084,0.939,0.187,1.419,0.187c1.445,0,2.9-0.393,4.319-1.191c3.602-2.025,4.888-6.621,2.863-10.238
		c-1.688-3.014-5.532-4.101-8.559-2.399c-1.239,0.69-2.126,1.827-2.505,3.193c-0.38,1.366-0.201,2.797,0.495,4.029
		c1.208,2.159,3.966,2.932,6.133,1.717c0.522-0.293,0.676-0.87,0.564-1.421c0.032-0.098,0.121-0.14,0.143-0.237
		c0.132-0.973-0.527-1.864-1.498-2.009c-0.938-0.14-1.798,0.509-1.967,1.437c-0.416-0.134-0.791-0.401-1.022-0.809
		c-0.338-0.604-0.433-1.308-0.248-1.978c0.189-0.67,0.622-1.227,1.229-1.566c1.74-0.96,3.924-0.351,4.883,1.363
		c1.298,2.32,0.475,5.263-1.835,6.56c-3.876,2.187-6.876-0.313-8.475-2.246C139.03,80.51,131.41,72.4,118.105,72.4
		c-0.032,0-0.069,0-0.105,0c-6.576,0.021-12.524,2.65-16.777,7.404c-2.647,2.958-4.396,6.634-5.374,10.605
		c-0.965-3.977-2.721-7.646-5.374-10.605c-4.248-4.754-10.204-7.383-16.777-7.404c-0.031,0-0.063,0-0.103,0
		c-13.294,0-20.915,8.1-27.583,17.102c-1.598,1.933-4.611,4.443-8.487,2.257c-2.312-1.302-3.133-4.245-1.838-6.56
		c0.968-1.725,3.159-2.339,4.883-1.369c0.604,0.34,1.036,0.896,1.226,1.566c0.187,0.67,0.103,1.371-0.237,1.983
		c-0.235,0.408-0.612,0.669-1.028,0.804c-0.177-0.928-1.031-1.571-1.97-1.432c-0.973,0.145-1.632,1.036-1.495,2.009
		c0.016,0.103,0.113,0.145,0.14,0.237c-0.103,0.551,0.048,1.128,0.567,1.421c2.165,1.215,4.925,0.442,6.133-1.717
		c0.699-1.236,0.87-2.668,0.488-4.034c-0.38-1.36-1.271-2.497-2.5-3.193c-3.02-1.689-6.863-0.614-8.562,2.405
		c-2.025,3.612-0.738,8.208,2.869,10.233c1.421,0.799,2.879,1.192,4.319,1.192c0.478,0,0.947-0.108,1.416-0.188
		c-1.36,1.906-2.71,3.812-4.121,5.579c-3.133,3.939-5.814,7.23-8.43,9.756c-0.29,0.026-0.577,0.096-0.81,0.307
		c-5.426,5.078-11.069,5.758-15.881,1.924c-3.752-2.989-4.38-8.469-1.392-12.229c2.304-2.887,6.523-3.367,9.4-1.06
		c1.065,0.838,1.735,2.051,1.885,3.396c0.15,1.345-0.227,2.674-1.081,3.729c-0.583,0.743-1.414,1.191-2.331,1.35
		c0.119-0.321,0.203-0.653,0.203-1.012c0-1.588-1.29-2.885-2.876-2.885c-1.593,0-2.885,1.292-2.885,2.885
		c0,0.511,0.174,0.97,0.406,1.387c0.016,0.379,0.155,0.743,0.475,0.996c1.36,1.087,3.061,1.572,4.777,1.371
		c1.725-0.189,3.27-1.049,4.343-2.404c1.297-1.624,1.885-3.654,1.648-5.727c-0.232-2.067-1.257-3.919-2.884-5.203
		c-4.045-3.235-9.962-2.56-13.197,1.495c-3.873,4.868-3.095,11.966,1.706,15.905c-2.117-1.023-3.992-2.516-5.416-4.504
		c-2.329-3.264-3.256-7.383-2.544-11.33c1.123-6.265,7.106-10.444,13.387-9.315c0.725,0.108,1.437-0.355,1.566-1.092
		c0.129-0.732-0.356-1.434-1.091-1.566c-7.715-1.371-15.13,3.771-16.517,11.491c-0.838,4.656,0.258,9.529,3.006,13.379
		c2.684,3.755,6.631,6.196,11.119,6.887c11.211,1.693,17.869-6.607,25.531-16.263c0.042-0.053,0.082-0.116,0.124-0.169h0.005
		c1.653-1.83,5.023-4.509,8.928-1.909c2.207,1.466,2.813,4.462,1.361,6.655c-1.092,1.646-3.322,2.088-4.968,0.996
		c-1.194-0.796-1.519-2.404-0.73-3.591c0.298-0.442,0.757-0.675,1.247-0.749c0.164,0.887,0.928,1.54,1.835,1.467
		c0.979-0.096,1.698-0.934,1.611-1.909c-0.011-0.143-0.14-0.222-0.19-0.354c0.026-0.464-0.092-0.923-0.506-1.197
		c-2.064-1.382-4.873-0.817-6.249,1.239c-1.613,2.426-0.949,5.722,1.479,7.336c1.07,0.706,2.278,1.044,3.473,1.044
		c2.035,0,4.034-0.986,5.244-2.801c2.278-3.443,1.334-8.104-2.112-10.399c-2.025-1.345-4.201-1.793-6.339-1.384
		c0.285-0.398,0.578-0.768,0.862-1.165c1.086-1.529,2.194-3.046,3.312-4.554c0.031-0.042,0.073-0.074,0.108-0.119
		c0.005-0.01,0-0.026,0.01-0.037c6.21-8.316,13.305-15.681,25.162-15.681c0.029,0,0.061,0,0.087,0
		c5.801,0.016,11.042,2.326,14.773,6.5c4.182,4.683,6.151,11.298,5.4,18.154c-0.543,5.01-3.006,9.513-6.937,12.666
		c-3.641,2.922-8.121,4.298-12.744,4.071c-2.781-0.485-5.018-1.756-6.449-3.775c-1.727-2.437-2.294-5.854-1.55-9.376
		c0.482-2.268,1.817-4.211,3.765-5.485c1.949-1.263,4.267-1.695,6.544-1.215c1.75,0.372,3.251,1.4,4.224,2.903
		c0.97,1.497,1.3,3.279,0.928,5.041c-0.276,1.318-1.046,2.447-2.175,3.186c-1.137,0.748-2.492,1.002-3.842,0.711
		c-0.896-0.184-1.65-0.722-2.202-1.449c1.35-0.254,2.371-1.393,2.354-2.816c-0.029-1.588-1.329-2.858-2.927-2.837
		c-1.2,0.011-2.22,0.774-2.637,1.813c-0.042,0.096-0.14,0.132-0.161,0.232c-0.05,0.222,0.01,0.443-0.011,0.675
		c0,0.074-0.04,0.121-0.04,0.2c0,0.059,0.029,0.101,0.034,0.143c-0.071,1.35,0.167,2.695,0.917,3.855
		c0.944,1.46,2.402,2.457,4.108,2.82c2.02,0.428,4.126,0.048,5.877-1.097c1.732-1.134,2.922-2.874,3.341-4.894
		c0.524-2.452,0.061-4.962-1.311-7.066c-1.366-2.102-3.473-3.549-5.93-4.065c-2.964-0.633-6.022-0.071-8.575,1.592
		c-2.555,1.656-4.306,4.208-4.936,7.182c-0.746,3.523-0.324,6.951,1.047,9.771c-0.517-0.479-1.042-0.959-1.49-1.523
		c-2.479-3.09-3.612-6.961-3.18-10.895c0.691-6.355,6.426-10.945,12.786-10.275c0.751,0.063,1.411-0.454,1.487-1.2
		c0.079-0.741-0.456-1.408-1.199-1.484c-7.815-0.814-14.905,4.838-15.763,12.664c-0.52,4.662,0.815,9.229,3.747,12.883
		c2.932,3.649,7.111,5.943,11.773,6.45c0.469,0.047,0.933,0.053,1.397,0.073c0.077,0.011,0.14,0.037,0.221,0.048
		c0.061,0.005,0.113,0.01,0.174,0.01c0.032,0,0.053-0.025,0.084-0.031c0.168,0,0.335,0.026,0.509,0.026
		c4.891,0,9.6-1.65,13.474-4.757c3.591-2.885,6.046-6.76,7.229-11.116c1.189,4.351,3.639,8.227,7.228,11.116
		c3.871,3.111,8.58,4.757,13.474,4.757c0.163,0,0.332-0.021,0.506-0.026c0.037,0,0.059,0.031,0.09,0.031c0.063,0,0.116,0,0.174-0.01
		c0.074-0.011,0.138-0.037,0.222-0.048c0.464-0.021,0.929-0.026,1.393-0.073c4.651-0.518,8.838-2.806,11.775-6.45
		c2.932-3.654,4.271-8.221,3.755-12.883c-0.85-7.826-7.91-13.523-15.757-12.664c-0.744,0.082-1.271,0.744-1.203,1.484
		c0.085,0.746,0.781,1.269,1.487,1.2c6.35-0.675,12.087,3.926,12.783,10.275c0.433,3.934-0.696,7.805-3.18,10.895
		c-0.448,0.564-0.976,1.039-1.487,1.523c1.365-2.82,1.793-6.248,1.044-9.761c-0.633-2.974-2.378-5.532-4.936-7.188
		c-2.553-1.664-5.606-2.226-8.575-1.593c-2.457,0.522-4.566,1.965-5.933,4.066c-1.365,2.099-1.83,4.609-1.308,7.061
		c0.417,2.025,1.613,3.771,3.344,4.904c1.74,1.129,3.828,1.524,5.869,1.092c1.703-0.364,3.164-1.366,4.113-2.826
		c0.754-1.155,0.991-2.5,0.917-3.85c0-0.048,0.037-0.096,0.037-0.148c0-0.068-0.037-0.121-0.042-0.2
		c-0.021-0.222,0.042-0.442-0.011-0.675c-0.021-0.101-0.116-0.132-0.158-0.222c-0.422-1.044-1.439-1.804-2.637-1.813
		c-1.598-0.032-2.9,1.244-2.927,2.831c-0.016,1.419,1.013,2.558,2.357,2.821c-0.554,0.723-1.303,1.245-2.199,1.445
		c-1.329,0.295-2.694,0.031-3.834-0.712c-1.128-0.743-1.914-1.872-2.183-3.196c-0.369-1.75-0.042-3.533,0.928-5.035
		c0.976-1.506,2.474-2.532,4.225-2.903c2.277-0.49,4.604-0.056,6.544,1.215c1.94,1.258,3.28,3.211,3.766,5.485
		c0.743,3.522,0.179,6.939-1.551,9.376c-1.439,2.024-3.681,3.29-6.46,3.765c-4.609,0.243-9.107-1.139-12.735-4.061
		c-3.937-3.153-6.399-7.656-6.938-12.666c-0.751-6.856,1.219-13.472,5.403-18.149c3.723-4.174,8.975-6.484,14.771-6.5
		c0.026,0,0.058,0,0.09,0c11.85,0,18.947,7.37,25.159,15.681c0.006,0.011,0,0.026,0.011,0.037c0.037,0.044,0.079,0.076,0.11,0.113
		c1.124,1.508,2.226,3.029,3.312,4.554c0.284,0.397,0.574,0.767,0.859,1.165c-2.136-0.409-4.319,0.04-6.339,1.39
		c-3.449,2.289-4.388,6.961-2.114,10.399c1.207,1.809,3.206,2.795,5.241,2.795c1.202,0,2.405-0.338,3.48-1.044
		c2.426-1.625,3.091-4.91,1.477-7.336c-1.387-2.062-4.177-2.621-6.249-1.239c-0.411,0.274-0.538,0.733-0.506,1.197
		c-0.048,0.132-0.174,0.216-0.19,0.354c-0.084,0.98,0.633,1.824,1.614,1.909c0.907,0.073,1.672-0.58,1.83-1.467
		c0.49,0.074,0.954,0.301,1.249,0.744c0.791,1.187,0.459,2.8-0.732,3.591c-1.646,1.087-3.876,0.644-4.968-0.991
		c-1.461-2.204-0.849-5.194,1.355-6.655c3.913-2.61,7.277,0.079,8.928,1.909h0.005c0.043,0.063,0.079,0.116,0.122,0.169
		c7.656,9.65,14.291,17.956,25.533,16.258c4.488-0.686,8.433-3.127,11.117-6.882C191.137,107.901,192.244,103.033,191.396,98.372z"
		/>
</g>
<g>
</g>
<g>
</g>
<g>
</g>
<g>
</g>
<g>
</g>
<g>
</g>
<g>
</g>
<g>
</g>
<g>
</g>
<g>
</g>
<g>
</g>
<g>
</g>
<g>
</g>
<g>
</g>
<g>
</g>
</svg>
