<?xml version="1.0" encoding="iso-8859-1"?>
<!-- Generator: Adobe Illustrator 19.0.0, SVG Export Plug-In . SVG Version: 6.00 Build 0)  -->
<svg version="1.1" id="Capa_1" xmlns="http://www.w3.org/2000/svg" xmlns:xlink="http://www.w3.org/1999/xlink" x="0px" y="0px"
	 viewBox="0 0 512 512" style="enable-background:new 0 0 512 512;" xml:space="preserve">
<g>
	<g>
		<path d="M306,46c-11.05,0-20,8.95-20,20s8.95,20,20,20s20-8.95,20-20S317.05,46,306,46z"/>
	</g>
</g>
<g>
	<g>
		<path d="M256,126c-5.52,0-10,4.48-10,10s4.48,10,10,10s10-4.48,10-10S261.52,126,256,126z"/>
	</g>
</g>
<g>
	<g>
		<path d="M206,46c-11.05,0-20,8.95-20,20s8.95,20,20,20s20-8.95,20-20S217.05,46,206,46z"/>
	</g>
</g>
<g>
	<g>
		<path d="M299.744,170.588l-5.78-11.56c-2.47-4.94-8.479-6.943-13.417-4.472c-4.939,2.47-6.941,8.477-4.472,13.417l5.792,11.582
			c1.421,2.825,1.878,5.858,1.359,9l-7.53,45.14c-1.017,6.096,3.684,11.647,9.875,11.647c4.8,0,9.036-3.466,9.852-8.356
			l7.533-45.156C304.165,184.511,303.05,177.158,299.744,170.588z"/>
	</g>
</g>
<g>
	<g>
		<path d="M437.362,4.876c-4.175-1.26-8.905-2.688-10.335-3.52c-3.094-1.799-6.912-1.808-10.014-0.023
			C413.911,3.118,412,6.422,412,10v40.089c-24.323,14.582-40,41.142-40,70.631c0,20.881,4.582,39.545,14.323,58.268
			c-4.379,2.199-12.334,3.824-24.556-0.223c-3.369-1.114-12.776-3.464-19.39-5.078c-2.814-16.755-9.47-24.878-19.544-46.38
			c-9.739-19.478-27.548-33.697-48.454-39.01L265.7,53.575C264.589,49.123,260.589,46,256,46s-8.589,3.123-9.701,7.575
			l-8.679,34.722c-20.906,5.313-38.715,19.532-48.454,39.01c-10.116,21.592-16.73,29.619-19.544,46.38
			c-6.614,1.614-16.023,3.965-19.396,5.08c-12.215,4.046-20.171,2.42-24.55,0.22C135.422,160.248,140,141.592,140,120.72
			c0-28.674-14.986-55.635-40-70.631V10c0-3.578-1.912-6.884-5.014-8.668c-3.102-1.784-6.92-1.776-10.014,0.023
			c-1.43,0.832-6.16,2.26-10.335,3.52C50.411,12.19,0,27.409,0,86.23v48.95c0,36.995,32.586,88.229,85.945,90.717
			c14.347,12.681,33.926,19.198,53.477,19.198c12.686,0,25.355-2.751,36.571-8.331l1.133,6.797
			c1.824,10.962,6.09,21.378,12.417,30.454C187.202,281.078,186,288.445,186,296c0,10.932,2.527,21.807,7.331,31.801
			C188.526,337.447,186,348.145,186,359c0,13.045,3.542,25.812,10.126,37.106C178.249,403.829,166,421.586,166,442
			c0,27.57,22.43,50,50,50c0.078,0,0.155,0,0.232-0.001C225.626,504.477,240.334,512,256,512s30.374-7.523,39.768-20.001
			c0.077,0,0.154,0.001,0.232,0.001c27.57,0,50-22.43,50-50c0-20.414-12.249-38.171-30.125-45.894
			C322.458,384.815,326,372.047,326,359c0-10.855-2.526-21.553-7.331-31.2c4.805-9.998,7.331-20.87,7.331-31.8
			c0-7.555-1.202-14.922-3.543-21.985c6.327-9.076,10.594-19.491,12.417-30.45l1.134-6.801
			c28.517,14.187,66.384,10.047,90.046-10.867C479.414,223.409,512,172.175,512,135.18V86.23
			C512,27.409,461.589,12.189,437.362,4.876z M84.483,205.765C44.939,202.354,20,162.792,20,135.18V86.23
			c0-43.697,37.357-55.244,60-62.082c0,11.718,0,77.7,0,91.852c0,5.523,4.478,10,10,10c5.522,0,10-4.477,10-10V74.955
			c12.569,11.636,20,28.146,20,45.766C120,161.163,100.179,181.222,84.483,205.765z M103.013,213.976
			c3.201-4.768,8.2-11.588,12.415-17.885c12.548,7.02,27.49,6.165,41.08,1.663c1.835-0.606,6.998-1.944,12.539-3.325
			c0.399,3.572,0.611,4.137,3.441,21.322C152.363,229.009,122.396,227.987,103.013,213.976z M326,442
			c0,17.31-15.041,32.188-33.959,29.557c-4.044-0.534-8.019,1.447-10.023,5.006C276.654,486.085,266.685,492,256,492
			s-20.654-5.915-26.018-15.438c-2.005-3.56-5.979-5.541-10.023-5.006l-1.058,0.145C202.517,473.998,186,460.408,186,442
			c0-14.145,9.794-26.165,23.272-29.238C222.181,425.041,238.904,432,256,432c17.092,0,33.812-6.956,46.727-19.238
			C316.206,415.835,326,427.855,326,442z M207.294,347.798C220.331,361.154,237.864,369,256,369
			c18.137,0,35.672-7.847,48.707-21.201C305.545,351.457,306,355.211,306,359c0,12.991-5.111,26.177-14.016,36.166
			C282.282,406.022,269.503,412,256,412s-26.282-5.979-35.976-16.824C211.111,385.177,206,371.991,206,359
			C206,355.211,206.455,351.456,207.294,347.798z M206,296c0-1.599,0.081-3.184,0.228-4.756C218.985,300.753,234.539,306,250.83,306
			h10.34c16.291,0,31.845-5.247,44.602-14.756c0.147,1.572,0.228,3.157,0.228,4.756c0,9.478-2.628,18.937-7.606,27.364
			C289.078,339.177,272.833,349,256,349s-33.078-9.823-42.399-25.646C208.628,314.937,206,305.478,206,296z M315.146,240.279
			c-1.573,9.455-5.618,18.358-11.698,25.749C293.006,278.72,277.597,286,261.17,286h-10.34c-16.427,0-31.836-7.28-42.277-19.974
			c-6.08-7.39-10.125-16.293-11.698-25.751c-8.205-49.205-8.716-49.536-8.147-57.812c0-0.006,0.001-0.012,0.001-0.017
			c1.12-16.766,8.427-24.573,18.346-46.194c7.873-15.746,22.945-26.798,40.318-29.566c3.958-0.63,7.156-3.563,8.128-7.451L256,97.24
			l0.499,1.995c0.972,3.888,4.17,6.82,8.128,7.451c17.373,2.768,32.445,13.821,40.318,29.566
			c9.919,21.622,17.225,29.414,18.348,46.212C324.036,193.282,315.146,240.279,315.146,240.279z M339.512,215.751l2.893-17.347
			c0.22-1.32,0.4-2.646,0.549-3.975c5.54,1.381,10.701,2.718,12.532,3.323c13.629,4.514,28.556,5.346,41.085-1.661
			c4.211,6.291,9.178,13.064,12.416,17.886C389.606,227.985,359.642,229.008,339.512,215.751z M492,135.18
			c0,27.612-24.938,67.174-64.483,70.584C412.897,182.904,392,161.891,392,120.72c0-17.589,7.411-34.112,20-45.766V116
			c0,5.523,4.478,10,10,10c5.522,0,10-4.477,10-10c0-5.888,0-80.801,0-91.852c22.643,6.838,60,18.385,60,62.082V135.18z"/>
	</g>
</g>
<g>
</g>
<g>
</g>
<g>
</g>
<g>
</g>
<g>
</g>
<g>
</g>
<g>
</g>
<g>
</g>
<g>
</g>
<g>
</g>
<g>
</g>
<g>
</g>
<g>
</g>
<g>
</g>
<g>
</g>
</svg>
