<?xml version="1.0" encoding="iso-8859-1"?>
<!-- Generator: Adobe Illustrator 19.0.0, SVG Export Plug-In . SVG Version: 6.00 Build 0)  -->
<svg version="1.1" id="Layer_1" xmlns="http://www.w3.org/2000/svg" xmlns:xlink="http://www.w3.org/1999/xlink" x="0px" y="0px"
	 viewBox="0 0 498.072 498.072" style="enable-background:new 0 0 498.072 498.072;" xml:space="preserve">
<g>
	<g>
		<g>
			<path d="M497.036,146.072V102.28l-93.144-76.208h-120.76L249.036,0L214.94,26.072H94.18L1.036,102.28v43.792h16v240h-16v112h496
				v-112h-16v-240H497.036z M398.18,42.072l29.336,24h-50.48v16h70.032l19.56,16h-89.344l-73.232-56H398.18z M377.036,354.072v-144
				h16v-40v-8v-16h72v240h-72v-32H377.036z M329.036,194.072v-16h48v16H329.036z M361.036,210.072v144h-16v-144H361.036z
				 M249.036,20.144l128,97.88v44.048h-48V126.16l-80-62.224l-80,62.216v35.92h-48v-44.048L249.036,20.144z M201.036,274.072v112
				h-16v-32h-16v-144h16v-40v-8v-28.088l64-49.784l64,49.784v28.088v8v40h16v144h-16v32h-16v-112H201.036z M281.036,290.072v96h-64
				v-96H281.036z M121.036,210.072v144h-16v32h-72v-240h72v16v8v40H121.036z M121.036,370.072h48v16h-48V370.072z M137.036,354.072
				v-144h16v144H137.036z M121.036,194.072v-16h48v16H121.036z M51.004,82.072h70.032v-16h-50.48l29.336-24h94.128l-73.232,56
				H31.444L51.004,82.072z M17.036,114.072h88v16h-88V114.072z M153.036,482.072h-136v-80h136V482.072z M329.036,482.072h-160v-16
				h160V482.072z M329.036,450.072h-160v-16h160V450.072z M329.036,418.072h-160v-16h160V418.072z M329.036,370.072h48v16h-48
				V370.072z M481.036,482.072h-136v-80h136V482.072z M393.036,130.072v-16h88v16H393.036z"/>
			<path d="M297.036,138.072h-96v96h96V138.072z M241.036,218.072h-24v-24h24V218.072z M241.036,178.072h-24v-24h24V178.072z
				 M281.036,218.072h-24v-24h24V218.072z M281.036,178.072h-24v-24h24V178.072z"/>
			<path d="M449.036,226.072h-56v96h56V226.072z M433.036,306.072h-24v-64h24V306.072z"/>
			<path d="M49.036,322.072h56v-96h-56V322.072z M65.036,242.072h24v64h-24V242.072z"/>
		</g>
	</g>
</g>
<g>
</g>
<g>
</g>
<g>
</g>
<g>
</g>
<g>
</g>
<g>
</g>
<g>
</g>
<g>
</g>
<g>
</g>
<g>
</g>
<g>
</g>
<g>
</g>
<g>
</g>
<g>
</g>
<g>
</g>
</svg>
