<?xml version="1.0" encoding="iso-8859-1"?>
<!-- Generator: Adobe Illustrator 19.0.0, SVG Export Plug-In . SVG Version: 6.00 Build 0)  -->
<svg version="1.1" id="Layer_1" xmlns="http://www.w3.org/2000/svg" xmlns:xlink="http://www.w3.org/1999/xlink" x="0px" y="0px"
	 viewBox="0 0 496 496" style="enable-background:new 0 0 496 496;" xml:space="preserve">
<g>
	<g>
		<g>
			<path d="M496,272v-24L462.416,96H160V48h16V0H64v48h16v48H33.584L0.192,246.264L0,272h32v176H16v48h464v-48h-16V272H496z M80,16
				h80v16H80V16z M144,48v48H96V48H144z M144,480H32v-16h112V480z M48,448V272h113.528c-0.96,5.2-1.528,10.528-1.528,16v160H48z
				 M336,480H160v-16h176V480z M192,328v120h-16V288c0-39.704,32.304-72,72-72s72,32.296,72,72v160h-16V328H192z M288,344v104h-80
				V344H288z M334.472,272H448v176H336V288C336,282.528,335.432,277.2,334.472,272z M464,480H352v-16h112V480z M329.888,256
				c-12.84-32.728-44.664-56-81.888-56s-69.048,23.272-81.888,56H16v-7.128L46.416,112h403.168L480,248.872V256H329.888z"/>
			<rect x="256" y="384" width="16" height="16"/>
			<path d="M64,392h80v-96H64V392z M112,312h16v24h-16V312z M112,352h16v24h-16V352z M80,312h16v24H80V312z M80,352h16v24H80V352z"
				/>
			<path d="M432,296h-80v96h80V296z M384,376h-16v-24h16V376z M384,336h-16v-24h16V336z M416,376h-16v-24h16V376z M416,336h-16v-24
				h16V336z"/>
			<path d="M248,232c-22.056,0-40,17.944-40,40c0,22.056,17.944,40,40,40c22.056,0,40-17.944,40-40C288,249.944,270.056,232,248,232
				z M248,296c-13.232,0-24-10.768-24-24s10.768-24,24-24s24,10.768,24,24S261.232,296,248,296z"/>
		</g>
	</g>
</g>
<g>
</g>
<g>
</g>
<g>
</g>
<g>
</g>
<g>
</g>
<g>
</g>
<g>
</g>
<g>
</g>
<g>
</g>
<g>
</g>
<g>
</g>
<g>
</g>
<g>
</g>
<g>
</g>
<g>
</g>
</svg>
