<?xml version="1.0" encoding="iso-8859-1"?>
<!-- Generator: Adobe Illustrator 19.0.0, SVG Export Plug-In . SVG Version: 6.00 Build 0)  -->
<svg version="1.1" id="Layer_1" xmlns="http://www.w3.org/2000/svg" xmlns:xlink="http://www.w3.org/1999/xlink" x="0px" y="0px"
	 viewBox="0 0 496 496" style="enable-background:new 0 0 496 496;" xml:space="preserve">
<g>
	<g>
		<g>
			<path d="M96,368h72v-88H96V368z M112,296h40v56h-40V296z"/>
			<path d="M328,368h72v-88h-72V368z M344,296h40v56h-40V296z"/>
			<path d="M328,200h-16v-64H184v64h-16v16h160V200z M240,200h-40v-48h40V200z M296,200h-40v-48h40V200z"/>
			<path d="M479.216,400.032C479.752,397.24,480,394.616,480,392c0-26.472-21.528-48-48-48V166.536l32,13.536v-57.376l-48-20.304V48
				h16V0H320v48h16v20.544l-88-37.232L32,122.696v57.376l32-13.536V344c-26.472,0-48,21.528-48,48c0,2.616,0.248,5.24,0.784,8.032
				C6.064,410.544,0,424.84,0,440c0,21.68,12.696,41.176,32,50.384V496h432v-5.616c19.304-9.208,32-28.704,32-50.384
				C496,424.84,489.936,410.544,479.216,400.032z M336,16h80v16h-80V16z M400,48v47.616l-48-20.304V48H400z M48,155.928v-22.624
				l200-84.616l200,84.616v22.624L248,71.312L48,155.928z M168,248v16h16v152H80V159.76l168-71.072l168,71.072V416H312V264h16v-16
				H168z M312,432v16H184v-16H312z M200,416V264h96v152H200z M168,432v16H64v-16H168z M32,471.92c-9.872-7.424-16-19.168-16-31.92
				c0-12.048,5.368-23.344,14.728-30.992l4.064-3.32l-1.424-5.048C32.432,397.344,32,394.6,32,392c0-17.648,14.352-32,32-32v56H48
				v32H32V471.92z M152,480H48v-16h104V480z M328,480H168v-16h160V480z M328,432h104v16H328V432z M448,480H344v-16h104V480z
				 M464,471.92V448h-16v-32h-16v-56c17.648,0,32,14.352,32,32c0,2.6-0.432,5.344-1.368,8.64l-1.424,5.048l4.064,3.32
				C474.632,416.656,480,427.952,480,440C480,452.752,473.872,464.496,464,471.92z"/>
		</g>
	</g>
</g>
<g>
</g>
<g>
</g>
<g>
</g>
<g>
</g>
<g>
</g>
<g>
</g>
<g>
</g>
<g>
</g>
<g>
</g>
<g>
</g>
<g>
</g>
<g>
</g>
<g>
</g>
<g>
</g>
<g>
</g>
</svg>
