<?xml version="1.0" encoding="iso-8859-1"?>
<!-- Generator: Adobe Illustrator 19.0.0, SVG Export Plug-In . SVG Version: 6.00 Build 0)  -->
<svg version="1.1" id="Layer_1" xmlns="http://www.w3.org/2000/svg" xmlns:xlink="http://www.w3.org/1999/xlink" x="0px" y="0px"
	 viewBox="0 0 496 496" style="enable-background:new 0 0 496 496;" xml:space="preserve">
<g>
	<g>
		<g>
			<path d="M0,0v208h32v288h432V208h32V0H0z M400,16h32v176h-32V16z M304,16h32v112h16V16h32v176h-32v-48h-16v48h-32V16z M256,16h32
				v176h-32V16z M208,16h32v176h-32V16z M160,16h32v176h-32V16z M112,16h32v176h-32V16z M64,16h32v176H64V16z M16,192V16h32v176H32
				H16z M328,480H168V336c0-44.112,35.888-80,80-80s80,35.888,80,80V480z M448,480H344V336c0-52.936-43.064-96-96-96
				c-52.936,0-96,43.064-96,96v144H48V208h400V480z M480,192h-16h-16V16h32V192z"/>
			<path d="M264,376c0,13.232,10.768,24,24,24s24-10.768,24-24s-10.768-24-24-24S264,362.768,264,376z M296,376c0,4.416-3.592,8-8,8
				c-4.408,0-8-3.584-8-8c0-4.416,3.592-8,8-8C292.408,368,296,371.584,296,376z"/>
		</g>
	</g>
</g>
<g>
</g>
<g>
</g>
<g>
</g>
<g>
</g>
<g>
</g>
<g>
</g>
<g>
</g>
<g>
</g>
<g>
</g>
<g>
</g>
<g>
</g>
<g>
</g>
<g>
</g>
<g>
</g>
<g>
</g>
</svg>
