<svg id="Capa_1" enable-background="new 0 0 507.318 507.318" height="512" viewBox="0 0 507.318 507.318" width="512" xmlns="http://www.w3.org/2000/svg"><path d="m448.827 339.849c32.252 0 58.491-26.239 58.491-58.492 0-4.143-3.357-7.5-7.5-7.5s-7.5 3.357-7.5 7.5c0 23.981-19.51 43.492-43.491 43.492h-34.216c1.816-6.645 2.968-13.561 3.375-20.674 31.313-12.268 52.158-30.815 61.979-55.166 13.464-33.385 1.67-66.714-2.277-76.178 8.566-32.969-1.832-70.809-19.03-91.191l-24.438-29.326c-12.895-15.471-37.525-6.504-37.525 13.161 0 3.599.929 7.172 2.686 10.333 6.002 10.799 10.119 23.539 8.451 35.779-18.529-7.99-33.508-23.688-41.271-33.036-6.194-7.457-16.728-9.251-25.054-4.256-8.475 5.085-11.813 15.72-7.766 24.737 4.731 10.539 1.348 2.024 18.889 48.527 9.391 24.894 33.145 54.124 71.09 63.607-4.001 12.937-11.258 23.877-21.674 32.643-14.001-21.605-36.058-37.527-61.885-43.474v-21.312c0-5.875-2.297-11.399-6.446-15.533-13.756-13.807-37.554-4.054-37.554 15.533v18.756h-85v-18.756c0-5.875-2.297-11.399-6.446-15.533-13.756-13.807-37.554-4.054-37.554 15.533v21.312c-25.828 5.946-47.884 21.868-61.885 43.474-10.416-8.766-17.673-19.706-21.674-32.643 37.944-9.483 61.699-38.713 71.09-63.608 17.545-46.513 14.158-37.99 18.89-48.527 4.047-9.017.708-19.651-7.768-24.737-8.32-4.991-18.857-3.201-25.053 4.257-7.765 9.35-22.747 25.052-41.281 33.04-1.681-12.333 2.484-25.029 8.46-35.784 5.4-9.718 2.351-22.033-6.942-28.037-.001 0-.001 0-.002-.001-8.933-5.77-20.926-3.815-27.896 4.545-.11.132-24.408 29.287-24.517 29.421-18.932 23.488-26.983 60.237-18.964 91.133-5.693 13.728-9.114 30.881-8.426 46.982.173 4.029 3.493 7.18 7.487 7.18 4.29 0 7.681-3.571 7.499-7.82-.333-7.741.412-16.136 2.408-24.911 3.932 6.405 8.745 11.976 14.366 16.481 4.983 3.993 9.669 3.604 15.779 2.99 4.989 17.514 14.794 32.082 29.244 43.426-4.323 9.599-7.185 19.993-8.295 30.898-23.521-10.217-39.484-24.499-47.501-42.538-1.683-3.784-6.113-5.49-9.899-3.808-3.785 1.683-5.49 6.114-3.808 9.899 10.248 23.058 30.717 40.718 60.861 52.529.408 7.113 1.559 14.03 3.375 20.675h-34.218c-23.981-.002-43.491-19.512-43.491-43.494 0-4.143-3.357-7.5-7.5-7.5s-7.5 3.357-7.5 7.5c0 32.253 26.239 58.492 58.491 58.492h39.632c3.004 6.607 6.702 12.834 11.001 18.588h-27.873c-32.253 0-58.492 26.239-58.492 58.492 0 4.143 3.357 7.5 7.5 7.5s7.5-3.357 7.5-7.5c0-23.981 19.511-43.492 43.492-43.492h41.641c4.304 3.836 8.938 7.307 13.854 10.367l-18.28 5.802c-23.111 7.335-38.64 28.554-38.64 52.802v12.949c0 4.143 3.357 7.5 7.5 7.5s7.5-3.357 7.5-7.5v-12.949c0-17.683 11.323-33.156 28.177-38.505l33.48-10.626c18.844 6.621 31.8 5.656 51.284 5.656 4.143 0 7.5-3.357 7.5-7.5s-3.357-7.5-7.5-7.5c-25.22 0-28.75.824-48.737-5.719-32.404-12.502-54.872-43.946-54.872-79.857 0-47.55 38.799-85.576 85.576-85.576 140.527 0 133.186-.356 141.621 1.124 70.131 11.399 95.655 97.934 45.438 146.148-1.064.84-10.963 11.403-28.544 18.176-21.427 7.142-15.405 5.704-110.482 5.704-4.143 0-7.5 3.357-7.5 7.5s3.357 7.5 7.5 7.5c84.928 0 92.273 1.65 113.067-5.656l33.48 10.626c16.854 5.349 28.177 20.822 28.177 38.505v12.949c0 4.143 3.357 7.5 7.5 7.5s7.5-3.357 7.5-7.5v-12.949c0-24.248-15.528-45.467-38.64-52.802l-18.28-5.802c4.917-3.06 9.55-6.531 13.854-10.367h41.641c23.981 0 43.492 19.511 43.492 43.492 0 4.143 3.357 7.5 7.5 7.5s7.5-3.357 7.5-7.5c0-32.253-26.239-58.492-58.492-58.492h-27.873c4.299-5.753 7.997-11.981 11.001-18.588zm-26.131-277.931 7.708 9.25-13.019 7.512c-1.573-3.826-3.283-7.259-4.894-10.159-3.663-6.586 5.187-12.628 10.205-6.603zm-75.271 30.971c-2.143-4.772 4.255-8.774 7.596-4.754 3.013 3.628 7.013 8.114 11.843 12.811l-13.095 7.132c-3.076-8.154-1.732-4.915-6.344-15.189zm19.239 49.377-7.551-20.018 19.792-10.78c7.417 5.771 15.949 11.128 25.312 14.853-1.112 6.455-.971 12.943-.066 19.402.574 4.102 4.368 6.955 8.469 6.387 4.102-.575 6.961-4.366 6.387-8.469-.915-6.516-.908-13.52 1.231-19.688 3.452-9.949 3.745-20.24 1.666-30.563l18.247-10.529c5.197 6.237 25.621 26.663 25.621 65.169 0 21.853-7.576 40.457-20.784 51.041-.271.214-.635.128-.844-.147-6.438-8.445-12.469-18.639-16.983-28.704-1.695-3.78-6.136-5.47-9.912-3.773-3.779 1.694-5.469 6.133-3.773 9.912 2.918 6.507 6.427 13.059 10.258 19.257-30.286-9.012-49.354-32.894-57.07-53.35zm71.923 71.502c6.12.615 10.773 1.021 15.778-2.99 5.62-4.503 10.416-10.083 14.338-16.48 9.169 40.502-6.153 74.29-51.064 93.796-1.11-10.905-3.972-21.3-8.296-30.9 14.451-11.344 24.256-25.913 29.244-43.426zm-286.289-125.633c3.349-4.032 9.732-.005 7.597 4.753-4.976 11.081-3.11 6.614-6.345 15.19l-13.095-7.132c4.83-4.696 8.83-9.182 11.843-12.811zm-67.677-26.217c2.087-2.503 5.704-3.182 8.236-1.547 2.682 1.733 3.547 5.313 1.97 8.151-1.697 3.053-3.388 6.462-4.911 10.148l-13.003-7.503zm-22.288 137.155c-29.056-23.283-25.621-78.653-2.11-107.878l6.945-8.333 18.211 10.508c-1.918 9.531-1.969 20.003 1.701 30.583 9.77 28.162-22.936 76.561-24.747 75.12zm40.766-72.75c9.364-3.725 17.897-9.083 25.314-14.854l19.792 10.78-7.551 20.017c-7.717 20.458-26.787 44.343-57.077 53.353 11.736-18.998 23.511-46.328 19.522-69.296zm93.06 71.458c-6.747 0-9.382-.061-14 .284v-19.04c0-6.19 7.522-9.368 11.947-4.927 2.655 2.645 2.053 3.529 2.053 23.683zm129 .284c-4.629-.346-7.28-.284-14-.284v-18.756c0-6.19 7.522-9.368 11.947-4.927 2.679 2.669 2.053 3.549 2.053 23.967z"/></svg>