<?xml version="1.0" encoding="iso-8859-1"?>
<!-- Generator: Adobe Illustrator 19.0.0, SVG Export Plug-In . SVG Version: 6.00 Build 0)  -->
<svg version="1.1" id="Capa_1" xmlns="http://www.w3.org/2000/svg" xmlns:xlink="http://www.w3.org/1999/xlink" x="0px" y="0px"
	 viewBox="0 0 512 512" style="enable-background:new 0 0 512 512;" xml:space="preserve">
<g>
	<g>
		<circle cx="41.38" cy="41" r="15.676"/>
	</g>
</g>
<g>
	<g>
		<circle cx="65.383" cy="235.063" r="15.676"/>
	</g>
</g>
<g>
	<g>
		<circle cx="450.362" cy="235.063" r="15.676"/>
	</g>
</g>
<g>
	<g>
		<circle cx="364.164" cy="25.325" r="15.676"/>
	</g>
</g>
<g>
	<g>
		<circle cx="118.027" cy="128.991" r="15.676"/>
	</g>
</g>
<g>
	<g>
		<path d="M484.639,24.678C471.24,11.269,454.243,2.78,435.502,0.145c-4.67-0.651-9.38,0.922-12.718,4.259
			c-3.337,3.337-4.921,8.048-4.259,12.718c2.485,17.789-3.347,35.267-16.025,47.934c-12.678,12.678-30.146,18.52-47.935,16.025
			c-9.878-1.396-18.378,7.087-16.977,16.977c5.962,42.391,42.217,74.522,85.787,74.522c11.575,0,22.8-2.255,33.182-6.554
			c10.373-4.299,19.903-10.643,28.081-18.821C518.423,113.421,518.423,58.452,484.639,24.678z M463.383,125.939
			c-10.683,10.683-24.894,16.576-40.007,16.576c-15.113,0-29.314-5.893-39.997-16.576c-4.4-4.39-7.987-9.38-10.683-14.792
			c19.132-2.215,37.021-10.784,51.061-24.824c14.051-14.051,22.609-31.94,24.824-51.071c5.422,2.706,10.403,6.284,14.802,10.683
			c11.034,11.034,16.546,25.516,16.546,39.997C479.929,100.423,474.417,114.915,463.383,125.939z"/>
	</g>
</g>
<g>
	<g>
		<path d="M504.042,481.694c-39.597-66.419-169.126-283.641-230.686-386.867l38.253-38.253c5.871-5.871,5.871-15.388,0-21.259
			c-5.87-5.871-15.389-5.871-21.259,0L269.49,56.174v-41.14c0-8.302-6.731-15.033-15.033-15.033
			c-8.302,0-15.033,6.731-15.033,15.033v41.14l-20.859-20.859c-5.87-5.871-15.388-5.871-21.259,0
			c-5.871,5.871-5.871,15.389,0,21.259l38.253,38.253c-15.065,25.247-223.49,374.8-230.686,386.867
			C-3.077,495.023,6.544,512,22.091,512h149.305h166.122h149.305C502.352,512,512.003,495.042,504.042,481.694z M254.458,121.82
			l45.84,76.878h-91.68L254.458,121.82z M156.364,481.935H39.73l58.928-98.835h57.706V481.935z M322.486,481.935H186.429
			c0-122.01-0.857-116.872,2.566-128.901c8.078-28.542,34.365-49.518,65.463-49.528c31.098,0,57.385,20.976,65.463,49.528
			C323.343,365.063,322.486,359.899,322.486,481.935z M254.448,273.44c-47.764,0.02-87.651,34.335-96.33,79.593h-41.531
			l74.102-124.271h127.538l74.102,124.271h-41.531C342.119,307.755,302.222,273.44,254.448,273.44z M352.552,481.935v-98.835h57.706
			l58.928,98.835H352.552z"/>
	</g>
</g>
<g>
</g>
<g>
</g>
<g>
</g>
<g>
</g>
<g>
</g>
<g>
</g>
<g>
</g>
<g>
</g>
<g>
</g>
<g>
</g>
<g>
</g>
<g>
</g>
<g>
</g>
<g>
</g>
<g>
</g>
</svg>
